<svg width="100" height="100" viewBox="0 0 100 100" fill="none" xmlns="http://www.w3.org/2000/svg">
<path d="M90.9257 19.9082C90.9257 19.9082 100.453 27.2489 99.6439 41.9372C98.8345 56.6249 83.5863 68.9455 67.9897 68.1938L80.0323 38.456L86.0107 28.2216L90.9257 19.9082Z" fill="#C79023"/>
<path d="M90.7094 20.1148C92.1365 21.2166 93.3291 22.6802 94.3589 24.1162C96.9431 27.7217 98.5588 31.9253 99.1325 36.2591C99.501 39.0449 99.5188 41.9298 99.0094 44.7009C98.5484 47.21 97.668 49.6399 96.446 51.9003C93.9469 56.5214 90.0837 60.4283 85.5189 63.2299C80.9144 66.0556 75.5433 67.7877 70.0589 67.9232C69.3689 67.9402 68.6789 67.9314 67.9902 67.8991C68.0887 68.0228 68.1867 68.1466 68.2853 68.2703C68.5706 67.5655 68.8565 66.8601 69.1418 66.1553C69.855 64.3945 70.5683 62.6336 71.2809 60.8722C72.2201 58.5525 73.1598 56.2329 74.099 53.9133C75.0486 51.5678 75.9988 49.2224 76.9483 46.8763C77.7093 44.9965 78.4709 43.1172 79.2319 41.2373C79.5907 40.3513 79.9415 39.4612 80.3089 38.5782C80.3554 38.4662 80.2464 38.6743 80.3431 38.5219C80.4754 38.3149 80.5917 38.0962 80.7154 37.8845C81.2254 37.012 81.7347 36.1389 82.2447 35.2664C83.4239 33.2476 84.603 31.2287 85.7822 29.2099C86.3473 28.243 86.9179 27.279 87.4879 26.315C88.6431 24.3613 89.7978 22.4081 90.9531 20.4543C91.0321 20.3212 91.111 20.1876 91.1894 20.0544C91.3841 19.7255 90.8551 19.43 90.661 19.7583C89.7354 21.3233 88.8103 22.8889 87.8846 24.4539C87.1432 25.7081 86.3956 26.9588 85.661 28.2166C84.6557 29.9376 83.6504 31.6585 82.6451 33.3795C81.6992 34.9984 80.7007 36.5992 79.8038 38.2439C79.4921 38.8151 79.2956 39.4653 79.0532 40.064C78.3742 41.7404 77.6953 43.4174 77.0163 45.0938C76.0912 47.3789 75.1655 49.6633 74.2404 51.9484C73.278 54.3255 72.3156 56.702 71.3525 59.0791C70.5615 61.0317 69.7712 62.9848 68.9802 64.9374C68.57 65.9501 68.1598 66.9633 67.7496 67.9759C67.7312 68.0217 67.7122 68.068 67.6939 68.1137C67.6179 68.3014 67.809 68.4767 67.989 68.4849C73.586 68.7441 79.1756 67.3444 84.0588 64.7468C88.8697 62.188 93.0402 58.4634 95.9268 53.9678C97.365 51.7279 98.4811 49.288 99.171 46.7415C99.9014 44.0448 100.107 41.2508 99.951 38.4738C99.6859 33.7284 98.2717 29.0516 95.6783 24.9887C94.4703 23.0971 93.0071 21.1996 91.2212 19.763C91.1949 19.7419 91.1686 19.7202 91.1423 19.6997C90.8386 19.4657 90.4027 19.878 90.7094 20.1148Z" fill="white"/>
<path d="M82.1801 30.5907C82.1801 30.5907 65.6499 45.6537 52.2733 43.4836C38.8967 41.3135 40.4444 25.623 40.4444 25.623C40.4444 25.623 10.4611 30.4224 23.1354 56.7465C31.3093 73.724 71.9406 51.678 75.9102 45.8601C79.8799 40.0422 82.1801 30.5907 82.1801 30.5907Z" fill="#C79023"/>
<path d="M81.9635 30.3838C80.133 32.0508 78.1248 33.5619 76.0898 34.9896C71.9334 37.9056 67.4108 40.5208 62.5081 42.1022C57.7474 43.6385 52.2349 44.1591 47.7178 41.6466C44.2085 39.6946 42.2072 36.1835 41.3182 32.4894C40.7819 30.2618 40.6539 28.0102 40.7415 25.7345C40.7427 25.6976 40.747 25.6601 40.7507 25.6231C40.7709 25.4155 40.5401 25.3123 40.3631 25.3405C38.9666 25.5645 37.5855 25.9556 36.2447 26.3825C33.2692 27.3294 30.3826 28.627 27.8283 30.3785C24.7678 32.4771 22.2289 35.2529 20.8636 38.6427C19.0765 43.0797 19.5645 47.9916 21.0455 52.4397C21.5518 53.9596 22.1695 55.4489 22.8717 56.8955C23.2764 57.7293 23.7803 58.5121 24.3876 59.2245C25.5496 60.5866 27.082 61.5958 28.7761 62.2566C32.657 63.77 37.122 63.5008 41.1615 62.8195C46.1052 61.9851 50.8972 60.3785 55.4975 58.481C59.9122 56.6598 64.2027 54.5266 68.2741 52.0768C69.8438 51.1322 71.3848 50.1377 72.8529 49.0529C73.8729 48.2989 74.9064 47.5061 75.7402 46.5585C76.399 45.8103 76.8906 44.9244 77.3718 44.0665C78.1891 42.6094 78.8914 41.0937 79.5281 39.5574C80.5621 37.0618 81.4254 34.4977 82.1478 31.9036C82.2617 31.4938 82.3743 31.0827 82.4754 30.6693C82.5647 30.3023 81.9745 30.1457 81.8852 30.5134C81.5154 32.0309 81.0519 33.532 80.5603 35.0166C79.5562 38.0499 78.3765 41.0596 76.7914 43.8625C76.3433 44.6552 75.8345 45.5547 75.2688 46.1868C74.9039 46.5943 74.498 46.9678 74.0811 47.3255C72.9123 48.3293 71.6401 49.2224 70.3477 50.0726C66.6896 52.4802 62.7854 54.5594 58.7882 56.4012C54.281 58.4781 49.5931 60.2635 44.7461 61.4662C40.5719 62.5017 36.0481 63.2229 31.754 62.4636C29.9742 62.1487 28.2428 61.5524 26.7576 60.5468C25.2447 59.5224 24.1207 58.104 23.3529 56.4997C21.1342 51.8669 19.5957 46.5656 20.6524 41.456C21.4042 37.8223 23.4913 34.6519 26.378 32.2203C28.8189 30.1645 31.7295 28.6376 34.7508 27.5176C36.5318 26.8574 38.3771 26.3074 40.2529 25.9544C40.3435 25.9374 40.4348 25.9204 40.526 25.9057C40.3968 25.8113 40.2676 25.7175 40.1385 25.6231C39.9462 27.5857 40.136 29.6309 40.4972 31.563C41.1884 35.2641 42.8763 38.9235 46.0477 41.2731C50.1643 44.3227 55.6879 44.4658 60.5465 43.2726C65.7358 41.9984 70.5436 39.4161 74.9168 36.5083C76.6237 35.3737 78.2797 34.1676 79.8813 32.8999C80.6987 32.2525 81.5264 31.6005 82.2899 30.8939C82.3247 30.8617 82.3615 30.83 82.397 30.7977C82.6823 30.538 82.2488 30.1234 81.9635 30.3838Z" fill="white"/>
<path d="M89.5766 35.958C89.5766 35.958 90.9768 48.8632 83.2461 59.6394C75.5155 70.4155 56.3142 70.0256 52.6953 79.4548C49.0764 88.8841 65.7823 93.7004 72.6154 82.7238C72.6154 82.7238 69.4893 100.235 52.3181 99.6637C35.1469 99.092 25.1192 72.6654 39.6321 63.9462C54.145 55.2276 82.9321 48.879 89.5766 35.958Z" fill="#C79023"/>
<path d="M89.2705 35.9575C89.4309 37.4492 89.3935 38.976 89.3133 40.4707C89.1229 44.0305 88.4721 47.5756 87.3211 50.9671C86.603 53.0833 85.6834 55.1361 84.5477 57.0782C83.5473 58.7886 82.4068 60.4181 80.9656 61.8177C78.5203 64.1925 75.4671 65.8912 72.3411 67.3084C69.2065 68.7297 65.947 69.8737 62.7689 71.1995C60.0402 72.3382 57.2496 73.62 55.0652 75.599C53.1471 77.3358 51.7347 79.8084 51.8932 82.3984C52.0365 84.7374 53.5426 86.6952 55.6058 87.8709C57.9261 89.1925 60.7565 89.5625 63.4007 89.1791C66.4851 88.7317 69.3149 87.1766 71.3444 84.9174C71.9174 84.28 72.4274 83.5934 72.8799 82.8722C72.6931 82.7971 72.507 82.7215 72.3203 82.6464C72.027 84.283 71.4332 85.9054 70.7597 87.4282C69.3136 90.6995 67.1592 93.7574 64.2027 95.9439C60.3787 98.7719 55.255 99.9142 50.4924 99.2099C46.0428 98.552 42.1453 96.0975 39.2354 92.8731C36.2508 89.5655 34.2157 85.4422 33.3678 81.1512C32.5762 77.1434 32.848 72.7809 34.9167 69.1466C35.9373 67.3541 37.3766 65.7985 39.1215 64.6229C41.1315 63.269 43.3783 62.1871 45.5744 61.1434C50.7031 58.7059 56.016 56.6402 61.2781 54.4853C66.6033 52.304 71.9364 50.0753 76.9708 47.3188C81.1523 45.0296 85.3455 42.3154 88.2542 38.5709C88.8566 37.7951 89.3917 36.973 89.8405 36.1064C90.015 35.7692 89.4872 35.472 89.3121 35.8103C87.2134 39.8673 83.3116 42.8296 79.4105 45.2225C74.5714 48.1913 69.313 50.5015 64.0576 52.701C58.6284 54.9737 53.1232 57.0858 47.7546 59.4899C45.3803 60.5529 43.03 61.6746 40.7678 62.9441C38.8093 64.0435 37.0277 65.2872 35.6318 67.024C32.9649 70.3428 32.0778 74.6479 32.4194 78.76C32.7843 83.1519 34.4404 87.4604 37.0369 91.09C39.6015 94.675 43.1843 97.6924 47.5219 99.1114C52.1259 100.617 57.5453 100.173 61.8652 98.0554C65.5098 96.2688 68.3181 93.2543 70.2356 89.8293C71.4032 87.7442 72.3154 85.4791 72.8352 83.1618C72.8621 83.0422 72.8884 82.922 72.9105 82.8012C72.9668 82.4869 72.5401 82.2741 72.3509 82.5755C70.6771 85.2446 68.1161 87.3355 64.9796 88.238C62.4144 88.9756 59.5547 88.9269 57.0721 87.9248C54.9342 87.0617 53.0846 85.4123 52.6101 83.1712C52.0947 80.7366 53.2916 78.2211 55.0144 76.4773C57.0207 74.4456 59.7267 73.1433 62.3562 72.0122C65.4437 70.6841 68.6273 69.5712 71.7105 68.2319C74.8072 66.8868 77.8426 65.3113 80.3999 63.1394C83.469 60.5324 85.5463 57.0019 87.0566 53.3882C88.5223 49.8829 89.396 46.1619 89.7762 42.4074C89.9825 40.3686 90.0658 38.297 89.9084 36.2518C89.9011 36.1539 89.8931 36.0566 89.8827 35.9586C89.8423 35.5857 89.2301 35.5816 89.2705 35.9575Z" fill="white"/>
<path d="M75.9966 55.6166C75.9966 55.6166 68.989 63.3308 53.1739 66.8988C37.9116 70.3419 33.064 81.6387 44.5151 87.8747C44.5151 87.8747 26.5994 93.0645 21.8994 78.0959C17.8941 65.3397 28.8029 56.1221 42.9968 55.4267C57.1907 54.7312 75.9966 55.6166 75.9966 55.6166Z" fill="#C79023"/>
<path d="M75.7804 55.4099C74.7133 56.5826 73.386 57.5823 72.0886 58.5053C68.5273 61.0395 64.5331 63.0109 60.3859 64.5026C59.0016 65.0004 57.5966 65.446 56.1768 65.8412C54.686 66.2564 53.1683 66.5654 51.6745 66.9676C49.1839 67.6378 46.7479 68.5836 44.5524 69.9035C41.3817 71.8098 38.4154 74.7246 37.9507 78.4392C37.494 82.0869 39.8578 85.1976 42.8388 87.2082C43.3298 87.5395 43.8391 87.8438 44.3608 88.1294C44.3853 87.9505 44.4097 87.7723 44.4336 87.5934C43.4773 87.8696 42.4788 88.0403 41.4931 88.1804C39.2658 88.4959 36.9761 88.5598 34.7414 88.2801C32.0274 87.94 29.3532 87.0405 27.1853 85.4098C24.4009 83.3159 22.7252 80.227 21.8987 76.9762C21.0165 73.5085 21.2191 69.8179 22.8366 66.5718C24.3984 63.4377 27.0751 60.9498 30.1772 59.203C33.678 57.2317 37.6948 56.1546 41.7251 55.8074C44.0002 55.6116 46.2991 55.5787 48.5821 55.5277C50.9814 55.4744 53.382 55.4533 55.7819 55.455C60.0571 55.4574 64.3329 55.5283 68.6063 55.6479C70.9585 55.7136 73.3107 55.7922 75.6616 55.896C75.7737 55.9007 75.8851 55.9059 75.9971 55.9112C76.3908 55.93 76.3902 55.3436 75.9971 55.3249C74.2859 55.2445 72.5741 55.1847 70.8617 55.1296C66.7733 54.9971 62.683 54.9103 58.5921 54.8798C53.7609 54.8435 48.9268 54.878 44.0993 55.0844C39.8327 55.2668 35.6506 55.9751 31.7648 57.7366C28.4195 59.2523 25.3865 61.5157 23.349 64.5026C21.3348 67.4549 20.482 70.9918 20.8389 74.4953C21.2013 78.054 22.5838 81.6853 25.1147 84.3603C27.0983 86.4571 29.7566 87.8321 32.6121 88.4947C35.042 89.0594 37.5809 89.1508 40.0648 88.9304C41.5188 88.8014 42.9784 88.5815 44.3889 88.215C44.4581 88.1968 44.5279 88.1786 44.5965 88.1593C44.8444 88.0878 44.9032 87.7512 44.6693 87.6234C41.4612 85.866 38.4325 83.0081 38.5054 79.2202C38.5746 75.6258 41.3419 72.6694 44.2959 70.7626C46.3768 69.4192 48.7009 68.4453 51.0953 67.7422C52.5297 67.3212 53.9991 67.0286 55.4452 66.6492C56.8999 66.2669 58.3404 65.8336 59.7602 65.3458C63.9772 63.8974 68.0473 61.9795 71.706 59.4927C73.2678 58.4308 74.8865 57.2698 76.1588 55.8825C76.1765 55.8631 76.1949 55.845 76.212 55.8256C76.471 55.5412 76.0394 55.1249 75.7804 55.4099Z" fill="white"/>
<path d="M71.0008 43.4035C71.0008 43.4035 59.6978 49.012 46.0794 46.7944C32.4609 44.5774 20.1459 35.1798 10.2199 40.6833C4.04675 44.1059 -1.6274 51.1728 0.960496 61.9981C3.54778 72.8235 12.1704 73.1408 12.1704 73.1408C12.1704 73.1408 21.022 58.9244 36.2745 56.7068C51.527 54.4898 64.3281 56.7068 68.4135 54.2289C72.4989 51.7509 71.0008 43.4035 71.0008 43.4035Z" fill="#C79023"/>
<path d="M70.8468 43.1496C69.3774 43.8773 67.7869 44.4185 66.2177 44.9064C62.3937 46.0955 58.4008 46.8156 54.3821 46.9821C51.8481 47.0871 49.2994 46.9745 46.791 46.6086C44.4003 46.2591 42.0518 45.6821 39.7455 44.9908C35.3277 43.6674 31.0714 41.9095 26.6818 40.5075C22.9625 39.3195 18.9683 38.3104 15.02 38.8199C11.485 39.2761 8.35342 41.1425 5.83226 43.4968C3.18865 45.9648 1.29319 49.1176 0.488721 52.5748C-0.470644 56.6993 0.0130179 61.2629 1.67094 65.1692C2.83356 67.9087 4.73392 70.3615 7.40753 71.8971C8.77402 72.6823 10.3328 73.2481 11.924 73.4135C12.0054 73.4217 12.0874 73.4305 12.1695 73.4334C12.2766 73.4375 12.3801 73.3742 12.4339 73.288C13.73 71.2093 15.399 69.2984 17.1144 67.5317C20.8221 63.7139 25.2865 60.4479 30.3821 58.5346C33.7928 57.254 37.3743 56.7784 41.0012 56.4354C44.9642 56.0607 48.9455 55.9264 52.9262 55.883C56.081 55.849 59.2438 55.9024 62.3956 55.7382C64.3467 55.6368 66.5575 55.5353 68.3152 54.6218C70.3888 53.5441 71.1529 51.1793 71.4327 49.0818C71.6727 47.2823 71.6059 45.4359 71.3451 43.641C71.3298 43.5355 71.3139 43.4293 71.2956 43.3244C71.2294 42.9532 70.6392 43.1104 70.7054 43.4803C70.9325 44.751 70.9998 46.2022 70.949 47.5456C70.8682 49.6694 70.4727 52.2552 68.6575 53.6983C67.9963 54.2242 67.1679 54.4969 66.3426 54.6863C65.3006 54.9249 64.2292 55.0322 63.1627 55.1061C60.1585 55.3131 57.1353 55.2633 54.1256 55.2861C50.274 55.3154 46.4219 55.4075 42.582 55.7124C38.8523 56.0079 35.0552 56.3668 31.4927 57.5243C26.2177 59.2376 21.5482 62.3776 17.652 66.1496C16.2365 67.52 14.9171 68.9806 13.7006 70.5163C13.1074 71.265 12.4425 72.0437 11.9797 72.8775C11.9576 72.9168 11.9301 72.9538 11.9062 72.9919C11.9944 72.9432 12.0825 72.8951 12.1707 72.8465C11.818 72.833 11.6668 72.8007 11.2976 72.7304C10.5207 72.5826 9.75605 72.3498 9.03117 72.0431C6.54061 70.9877 4.54964 69.1278 3.2058 66.8732C2.17358 65.1417 1.52523 63.2301 1.11197 61.2823C0.658312 59.1432 0.498518 56.942 0.733002 54.7678C1.12054 51.1693 2.67499 47.7555 5.1582 45.0307C7.38182 42.5908 10.3701 40.4383 13.6921 39.6532C17.4812 38.7578 21.4509 39.5623 25.1022 40.6365C29.3988 41.9007 33.5351 43.6129 37.79 44.9949C42.3769 46.4843 47.0739 47.5245 51.9356 47.5995C56.1422 47.6646 60.3611 47.1064 64.4147 46.0351C66.6175 45.4534 68.8062 44.7346 70.8707 43.7888C70.9662 43.7448 71.0617 43.7014 71.1554 43.6545C71.5055 43.4827 71.1964 42.9761 70.8468 43.1496Z" fill="white"/>
<path d="M59.0432 16.3106C59.0432 16.3106 67.2171 13.9101 69.4915 22.5689C72.0163 32.1805 58.802 37.5627 50.3979 28.7374C41.8126 19.7209 53.9727 -5.18474 74.4996 1.36784C90.8179 6.57707 100.593 23.4314 87.1647 46.2754C73.7361 69.1195 45.6672 58.4207 30.1668 65.9074C14.6669 73.394 19.7925 97.7251 19.7925 97.7251C19.7925 97.7251 0.313212 82.054 5.0335 68.8579C12.3276 48.4678 38.1251 54.5302 57.6002 49.1873C77.0752 43.8444 87.1127 24.5308 77.9501 14.0702C73.1832 8.62815 60.3791 6.20062 59.0432 16.3106Z" fill="#C79023"/>
<path d="M59.1249 16.5943C61.0657 16.0285 63.4233 16.2108 65.2068 17.1244C67.1145 18.1012 68.3089 19.8932 68.953 21.827C69.6179 23.8235 69.7458 25.9819 68.8746 27.9421C67.2602 31.5729 62.9795 33.2446 59.0594 32.8611C56.6692 32.6271 54.3905 31.6514 52.5128 30.2319C51.03 29.1107 49.7584 27.7709 48.9784 26.1127C47.6505 23.2894 47.6952 19.9852 48.3766 17.0118C49.1682 13.5575 50.8561 10.2698 53.2034 7.54147C55.637 4.71287 58.8255 2.45831 62.497 1.35537C66.7171 0.0876548 71.1521 0.499275 75.2645 1.93469C79.405 3.37948 83.2369 5.67332 86.2687 8.75055C89.306 11.8336 91.4347 15.6526 92.4473 19.7776C93.6369 24.6239 93.2726 29.7036 91.96 34.49C91.1561 37.423 90.0064 40.2633 88.6221 42.9881C87.3217 45.5488 85.8561 48.0531 84.0065 50.2907C81.1039 53.803 77.3706 56.5553 73.0972 58.3695C69.0773 60.0764 64.7188 60.9507 60.3708 61.4561C56.0448 61.9592 51.6869 62.1082 47.3395 62.358C43.3165 62.589 39.2513 62.8804 35.3287 63.8151C31.5299 64.7204 27.9348 66.3259 25.2018 69.0695C22.4572 71.8242 20.7693 75.3805 19.8161 79.0429C18.921 82.4813 18.6222 86.0546 18.6822 89.5909C18.7232 91.9897 18.9271 94.3914 19.3116 96.7627C19.3679 97.1104 19.4261 97.4593 19.4983 97.8047C19.6691 97.7097 19.8393 97.6147 20.0101 97.5197C17.6359 95.6075 15.4668 93.4134 13.4556 91.1588C9.72346 86.9757 6.23742 82.0966 5.00317 76.6388C4.38543 73.9093 4.49318 71.1463 5.48683 68.513C6.52211 65.7688 8.06003 63.1924 10.1606 61.0668C14.115 57.0643 19.6232 55.093 25.1406 53.9812C31.3266 52.7352 37.6681 52.4098 43.9404 51.7718C50.3596 51.1186 56.9 50.2356 62.827 47.6562C68.7393 45.0826 73.9819 40.9587 77.5285 35.7266C80.4635 31.3964 82.3137 26.1027 81.4823 20.907C81.1064 18.558 80.136 16.3105 78.6305 14.4189C77.1361 12.5414 75.0925 11.1581 72.8315 10.2411C68.5881 8.52069 62.6372 8.30901 59.9765 12.6059C59.2755 13.7375 58.9167 15.0158 58.7386 16.3122C58.6871 16.6852 59.3 16.6817 59.3508 16.3122C59.6906 13.8413 60.9187 11.5328 63.3364 10.4123C65.4933 9.41313 68.0677 9.50108 70.3403 10.0517C72.7335 10.6322 75.0533 11.7586 76.8551 13.3881C78.6354 14.9982 79.8825 17.1525 80.5248 19.4047C81.9433 24.3782 80.4691 29.7123 77.8585 34.0825C74.6761 39.4102 69.6981 43.6759 64.0148 46.4576C58.1435 49.3314 51.5669 50.3675 45.0791 51.0658C38.884 51.7325 32.6325 52.0474 26.493 53.1298C21.035 54.092 15.5096 55.7503 11.2338 59.2761C9.06714 61.0627 7.32413 63.2827 6.05865 65.7342C4.74419 68.2808 3.87972 70.9716 4.00584 73.8348C4.24889 79.3425 7.30882 84.4767 10.6853 88.7817C13.1648 91.9428 15.9909 94.8881 19.0771 97.5156C19.2424 97.6563 19.4083 97.797 19.5779 97.9331C19.8136 98.123 20.1516 97.9436 20.0897 97.6481C19.7965 96.2531 19.6336 94.8265 19.5038 93.411C19.2026 90.1268 19.1934 86.8045 19.5932 83.5274C20.0585 79.7101 21.1091 75.8677 23.198 72.5565C25.3727 69.1099 28.6383 66.6144 32.5749 65.23C36.3665 63.8966 40.4353 63.4316 44.4393 63.1326C48.8566 62.8024 53.2891 62.6951 57.7021 62.3111C62.156 61.9235 66.6259 61.2697 70.8589 59.8437C75.1996 58.3813 79.1889 56.0804 82.411 52.9176C84.2422 51.1204 85.8132 49.0845 87.135 46.9179C88.8223 44.1515 90.2635 41.2255 91.3937 38.2099C93.2591 33.2299 94.2399 27.8542 93.5781 22.5687C93.0332 18.2197 91.3704 14.0337 88.6209 10.5219C85.9632 7.12691 82.4196 4.43551 78.4395 2.58789C74.3504 0.690427 69.8199 -0.440068 65.2643 0.162711C61.3252 0.683399 57.6923 2.47824 54.7952 5.0635C52.0065 7.5526 49.8869 10.7278 48.6013 14.1591C47.4423 17.251 46.9195 20.6847 47.6174 23.9314C48.4152 27.6413 51.1383 30.5608 54.6581 32.2226C58.4618 34.0186 63.2758 34.025 66.7276 31.4826C68.2569 30.3562 69.3889 28.7753 69.8554 26.9752C70.4113 24.8315 70.0103 22.5611 69.1085 20.5569C68.3194 18.8031 66.9982 17.268 65.167 16.4512C63.8378 15.8584 62.3538 15.6444 60.8961 15.7329C60.252 15.7722 59.5841 15.849 58.9639 16.0296C58.5861 16.1387 58.7465 16.7051 59.1249 16.5943Z" fill="white"/>
<path d="M93.2 28.2548C94.7109 34.2485 94.8916 40.6381 93.1987 46.6166C92.3649 49.5613 91.067 52.3811 89.2841 54.9131C88.2801 56.3397 87.1426 57.6795 85.9903 58.9976C84.9802 60.1528 83.9333 61.2803 82.8135 62.3393C80.3095 64.7082 77.3843 66.7429 73.9325 67.5931C73.5511 67.6869 73.7127 68.2528 74.0953 68.1583C77.1963 67.3949 79.9109 65.6974 82.2588 63.6516C84.7383 61.492 86.9326 58.973 88.9297 56.4006C92.9098 51.2735 94.8212 45.0264 94.9956 38.6773C95.0936 35.1204 94.6614 31.5554 93.7902 28.0988C93.6977 27.7323 93.1075 27.8877 93.2 28.2548Z" fill="white"/>
<path d="M80.5954 53.6587C79.9501 55.7361 78.9013 57.6981 77.5006 59.4027C76.0012 61.2268 74.1364 62.6482 72.0976 63.8848C67.8316 66.473 63.1787 68.3845 58.7076 70.6109C57.4653 71.2295 56.2366 71.8722 55.0348 72.5606C53.9634 73.1739 52.8363 73.8119 52.1983 74.8785C52.0018 75.2063 52.5308 75.5023 52.7267 75.1746C53.3107 74.1983 54.3644 73.6272 55.3434 73.0666C56.4448 72.4363 57.5694 71.8435 58.7063 71.2723C60.9612 70.1395 63.2625 69.0946 65.5419 68.0075C67.7967 66.9321 70.0332 65.8139 72.1699 64.5339C74.2111 63.3113 76.1194 61.9264 77.661 60.1403C79.2662 58.2804 80.4674 56.1267 81.1856 53.8141C81.2982 53.4523 80.7074 53.2975 80.5954 53.6587Z" fill="white"/>
<path d="M72.1741 82.9123C70.1299 86.3947 67.422 89.598 63.9188 91.8191C60.3189 94.1018 55.8104 95.2886 51.515 94.5029C49.3924 94.1147 47.0084 93.2405 46.0803 91.2117C45.9223 90.8669 45.3946 91.1647 45.5519 91.5078C46.368 93.2915 48.2947 94.2906 50.1669 94.7996C52.3415 95.3907 54.6411 95.4587 56.8665 95.1174C61.315 94.4349 65.2731 92.1018 68.3311 88.9894C70.0387 87.2514 71.4823 85.2859 72.7025 83.2078C72.8959 82.8789 72.3676 82.5828 72.1741 82.9123Z" fill="white"/>
<path d="M55.7146 66.006C51.0935 67.7973 46.173 69.7663 43.3115 73.9037C42.5939 74.9415 42.0521 76.0885 41.743 77.2987C41.6493 77.6652 42.2395 77.8217 42.3331 77.4547C43.4841 72.9485 47.6767 70.0918 51.8264 68.2248C53.1555 67.6273 54.5159 67.0984 55.8769 66.5712C56.2381 66.4317 56.0801 65.8641 55.7146 66.006Z" fill="white"/>
<path d="M65.705 60.8198C59.7407 61.846 53.7708 62.8539 47.8267 63.9827C42.5236 64.99 37.0949 66.2319 32.4506 68.9955C30.23 70.3171 28.1637 72.1049 27.3513 74.5565C27.2319 74.9171 27.8227 75.0713 27.9415 74.7125C28.667 72.5248 30.4963 70.9 32.4585 69.685C34.6785 68.3106 37.1421 67.3091 39.6498 66.5269C42.1807 65.7371 44.7802 65.1683 47.3871 64.6634C50.2266 64.114 53.0772 63.6127 55.9265 63.1102C59.2387 62.5256 62.5533 61.9556 65.8679 61.3851C66.2548 61.3188 66.0907 60.7536 65.705 60.8198Z" fill="white"/>
<path d="M44.3132 87.6251C39.6836 86.8505 34.6933 85.9933 31.165 82.7613C30.2901 81.9597 29.5573 81.0379 29.0081 80.0036C28.8293 79.667 28.301 79.9637 28.4798 80.2997C30.6422 84.3738 35.2633 86.3586 39.6848 87.3571C41.1615 87.6908 42.6565 87.9412 44.151 88.191C44.5361 88.2549 44.7014 87.6902 44.3132 87.6251Z" fill="white"/>
<path d="M58.9167 16.0081C57.5392 16.9029 56.6655 18.3394 56.368 19.8951C56.1984 20.7816 56.196 21.684 56.316 22.5765C56.4249 23.3886 56.5823 24.2523 57.1082 24.9213C57.3421 25.2192 57.8741 24.9272 57.6365 24.6252C57.1664 24.0271 57.0231 23.2643 56.9233 22.5372C56.81 21.7157 56.8021 20.8672 56.9582 20.0504C57.2263 18.649 57.9769 17.325 59.2253 16.5135C59.5498 16.3036 59.2443 15.7952 58.9167 16.0081Z" fill="white"/>
<path d="M6.94601 65.1784C7.15968 59.9486 9.03372 54.2633 13.5269 50.9673C16.0786 49.0957 19.2531 48.2748 22.4091 47.9804C25.5786 47.6843 28.8491 47.7552 31.9954 48.232C35.4778 48.7597 38.8738 49.8703 41.7366 51.8785C42.0549 52.1019 42.3604 51.593 42.0458 51.3725C36.7549 47.6603 29.7038 46.9068 23.3281 47.3219C20.0557 47.5354 16.7166 48.2091 13.9444 49.9664C11.5769 51.4675 9.77268 53.654 8.55618 56.0951C7.14499 58.9254 6.46173 62.0554 6.33378 65.179C6.31847 65.556 6.9307 65.5548 6.94601 65.1784Z" fill="white"/>
<path d="M19.4364 97.1331C16.3937 92.5219 14.2986 87.2312 14.1125 81.7376C13.9453 76.7893 15.4135 71.6844 18.6381 67.7652C20.4117 65.6097 22.6996 63.931 25.143 62.5255C27.5717 61.1282 30.1645 60.01 32.8345 59.1087C38.2674 57.2746 43.966 56.3212 49.6524 55.5431C55.7821 54.7046 61.957 54.0508 67.9826 52.6429C68.7197 52.4706 69.4532 52.2864 70.1842 52.0912C70.5631 51.9897 70.4021 51.4239 70.0213 51.5259C63.9272 53.1548 57.6365 53.8972 51.3838 54.7239C45.5052 55.5009 39.6057 56.3728 33.9451 58.1319C31.2237 58.9774 28.5629 60.0264 26.054 61.348C23.5243 62.6808 21.0735 64.2799 19.1138 66.328C15.5708 70.0326 13.7182 75.0267 13.507 80.0078C13.2743 85.485 15.0253 90.9124 17.8018 95.6566C18.1532 96.2576 18.523 96.8481 18.9075 97.4303C19.1181 97.747 19.6483 97.4532 19.4364 97.1331Z" fill="white"/>
<path d="M30.2958 52.3786C27.4538 51.237 24.2433 51.0734 21.2862 51.9013C20.9091 52.0069 21.0695 52.5733 21.4491 52.4666C24.3119 51.665 27.384 51.8398 30.1329 52.9439C30.496 53.0893 30.6539 52.5223 30.2958 52.3786Z" fill="white"/>
<path d="M19.0245 53.1664C19.4181 53.1664 19.4194 52.5801 19.0245 52.5801C18.6308 52.5801 18.6302 53.1664 19.0245 53.1664Z" fill="white"/>
<path d="M40.0648 25.7169C38.8557 26.02 38.0916 27.0256 37.401 27.9521C36.607 29.0181 35.9011 30.1463 35.3739 31.3565C34.3429 33.7225 34.0834 36.4227 35.2068 38.8039C35.369 39.1475 35.8968 38.8496 35.7352 38.5078C34.7029 36.3206 34.9833 33.8016 35.9127 31.6303C36.3768 30.5456 37.0043 29.5271 37.698 28.5637C38.339 27.673 39.0669 26.5736 40.2271 26.2821C40.6085 26.1871 40.4475 25.6213 40.0648 25.7169Z" fill="white"/>
<path d="M38.3098 41.7311C38.3532 41.7311 38.3973 41.7311 38.4408 41.7311C38.483 41.7329 38.5222 41.7241 38.5589 41.7059C38.5969 41.6942 38.63 41.6736 38.6575 41.6455C38.6875 41.6191 38.7083 41.5875 38.7206 41.5511C38.7396 41.5159 38.7487 41.4784 38.7469 41.4379C38.7432 41.4121 38.7395 41.3857 38.7359 41.3599C38.7212 41.3101 38.6949 41.2673 38.6569 41.2304C38.6361 41.2151 38.6159 41.1999 38.5951 41.1846C38.5473 41.1582 38.4959 41.1448 38.4408 41.1448C38.3973 41.1448 38.3532 41.1448 38.3098 41.1448C38.2675 41.143 38.2283 41.1518 38.1916 41.17C38.1536 41.1817 38.1206 41.2022 38.093 41.2304C38.063 41.2567 38.0422 41.2884 38.03 41.3248C38.011 41.3599 38.0018 41.3975 38.0036 41.4379C38.0073 41.4637 38.011 41.4901 38.0147 41.5159C38.0294 41.5658 38.0557 41.6086 38.0936 41.6455C38.1145 41.6607 38.1347 41.676 38.1555 41.6912C38.2032 41.7176 38.2547 41.7311 38.3098 41.7311Z" fill="white"/>
<path d="M43.0768 43.8272C43.0768 43.7433 43.0768 43.6595 43.0768 43.5756C43.0787 43.5352 43.0695 43.4976 43.0505 43.4625C43.0382 43.4261 43.0168 43.3944 42.9874 43.3681C42.9599 43.3393 42.9268 43.3194 42.8889 43.3077C42.8521 43.2895 42.8129 43.2807 42.7707 43.2824C42.7438 43.286 42.7162 43.2895 42.6893 43.293C42.6372 43.3071 42.5925 43.3323 42.554 43.3686C42.5381 43.3886 42.5221 43.4079 42.5062 43.4279C42.4787 43.4736 42.4646 43.5229 42.4646 43.5756C42.4646 43.6595 42.4646 43.7433 42.4646 43.8272C42.4627 43.8676 42.4719 43.9052 42.4909 43.9403C42.5032 43.9767 42.5246 44.0084 42.554 44.0348C42.5815 44.0635 42.6146 44.0834 42.6525 44.0951C42.6893 44.1133 42.7285 44.1221 42.7707 44.1204C42.7976 44.1168 42.8252 44.1133 42.8521 44.1098C42.9042 44.0957 42.9489 44.0705 42.9874 44.0342C43.0034 44.0142 43.0193 43.9949 43.0352 43.9749C43.0627 43.9292 43.0768 43.8799 43.0768 43.8272Z" fill="white"/>
<path d="M38.8572 26.1344C35.3173 27.4496 32.329 29.9868 30.5247 33.1871C30.0092 34.1018 29.5947 35.0676 29.2862 36.0638C29.1735 36.4262 29.7643 36.581 29.8764 36.2198C31.2067 31.9264 34.6567 28.3215 39.02 26.7002C39.3831 26.5647 39.2251 25.9977 38.8572 26.1344Z" fill="white"/>
<path d="M30.5705 39.3444C30.614 39.3444 30.6581 39.3444 30.7015 39.3444C30.7438 39.3462 30.7829 39.3374 30.8197 39.3192C30.8576 39.3075 30.8907 39.2869 30.9182 39.2588C30.9482 39.2324 30.9691 39.2007 30.9813 39.1644C31.0003 39.1292 31.0095 39.0917 31.0076 39.0512C31.004 39.0254 31.0003 38.999 30.9966 38.9732C30.9819 38.9234 30.9556 38.8806 30.9176 38.8436C30.8968 38.8284 30.8766 38.8131 30.8558 38.7979C30.8081 38.7715 30.7566 38.758 30.7015 38.758C30.6581 38.758 30.614 38.758 30.5705 38.758C30.5283 38.7563 30.4891 38.7651 30.4523 38.7832C30.4144 38.795 30.3813 38.8155 30.3538 38.8436C30.3238 38.87 30.303 38.9017 30.2907 38.938C30.2717 38.9732 30.2626 39.0108 30.2644 39.0512C30.2681 39.077 30.2717 39.1034 30.2754 39.1292C30.2901 39.179 30.3164 39.2218 30.3544 39.2588C30.3752 39.274 30.3954 39.2893 30.4162 39.3045C30.4634 39.3309 30.5148 39.3444 30.5705 39.3444Z" fill="white"/>
<path d="M58.9063 27.2817C59.3 27.2817 59.3012 26.6953 58.9063 26.6953C58.5127 26.6953 58.512 27.2817 58.9063 27.2817Z" fill="white"/>
<path d="M57.0631 18.3771C56.5562 18.0159 56.3976 17.3691 56.2794 16.8068C56.1564 16.221 56.0994 15.6247 56.1007 15.0278C56.1031 13.8639 56.3358 12.707 56.7723 11.621C57.6612 9.41281 59.449 7.64435 61.6818 6.64871C62.9454 6.08522 64.3297 5.79438 65.7219 5.78851C66.1155 5.78675 66.1167 5.20039 65.7219 5.20215C63.0446 5.21329 60.4126 6.24822 58.5018 8.04718C56.5684 9.86724 55.4946 12.439 55.4878 15.0278C55.486 15.7344 55.5662 16.445 55.7266 17.1346C55.8858 17.8177 56.1521 18.4551 56.7533 18.8837C57.0704 19.1089 57.3759 18.5999 57.0631 18.3771Z" fill="white"/>
<path d="M69.1412 6.17327C69.5348 6.17327 69.536 5.58691 69.1412 5.58691C68.7469 5.58691 68.7463 6.17327 69.1412 6.17327Z" fill="white"/>
<path d="M27.8012 77.0901C27.7645 77.0901 27.7283 77.0901 27.6916 77.0901C27.6494 77.0883 27.6102 77.0971 27.5734 77.1153C27.5355 77.127 27.5024 77.1475 27.4749 77.1757C27.4449 77.2021 27.4241 77.2337 27.4118 77.2701C27.3928 77.3053 27.3836 77.3428 27.3855 77.3832C27.3892 77.409 27.3928 77.4354 27.3965 77.4612C27.4112 77.5111 27.4375 77.5539 27.4755 77.5908C27.4963 77.6061 27.5165 77.6213 27.5373 77.6366C27.5851 77.6629 27.6365 77.6764 27.6916 77.6764C27.7283 77.6764 27.7645 77.6764 27.8012 77.6764C27.8434 77.6782 27.8826 77.6694 27.9193 77.6512C27.9573 77.6395 27.9904 77.619 28.0179 77.5908C28.0479 77.5644 28.0687 77.5328 28.081 77.4964C28.1 77.4612 28.1091 77.4237 28.1073 77.3832C28.1036 77.3574 28.1 77.3311 28.0963 77.3053C28.0816 77.2554 28.0553 77.2126 28.0173 77.1757C27.9965 77.1604 27.9763 77.1452 27.9555 77.1299C27.9077 77.1035 27.8563 77.0901 27.8012 77.0901Z" fill="white"/>
<path d="M41.9535 80.0305C41.9168 80.0305 41.8807 80.0305 41.8439 80.0305C41.8017 80.0287 41.7625 80.0375 41.7258 80.0557C41.6878 80.0674 41.6548 80.088 41.6272 80.1161C41.5972 80.1425 41.5764 80.1742 41.5642 80.2105C41.5452 80.2457 41.536 80.2832 41.5378 80.3237C41.5415 80.3495 41.5452 80.3759 41.5489 80.4017C41.5635 80.4515 41.5899 80.4943 41.6278 80.5312C41.6486 80.5465 41.6688 80.5617 41.6897 80.577C41.7374 80.6034 41.7888 80.6169 41.8439 80.6169C41.8807 80.6169 41.9168 80.6169 41.9535 80.6169C41.9958 80.6186 42.035 80.6098 42.0717 80.5916C42.1097 80.5799 42.1427 80.5594 42.1703 80.5312C42.2003 80.5049 42.2211 80.4732 42.2333 80.4368C42.2523 80.4017 42.2615 80.3641 42.2596 80.3237C42.256 80.2979 42.2523 80.2715 42.2486 80.2457C42.2339 80.1959 42.2076 80.153 42.1697 80.1161C42.1488 80.1009 42.1286 80.0856 42.1078 80.0704C42.0607 80.044 42.0092 80.0311 41.9535 80.0305Z" fill="white"/>
<path d="M51.3897 77.2553C51.7834 77.2553 51.7846 76.6689 51.3897 76.6689C50.9961 76.6689 50.9954 77.2553 51.3897 77.2553Z" fill="white"/>
<path d="M45.2223 89.1503C45.2223 89.1151 45.2223 89.0805 45.2223 89.0454C45.2242 89.0049 45.215 88.9674 45.196 88.9322C45.1838 88.8958 45.1623 88.8642 45.1329 88.8378C45.1054 88.809 45.0723 88.7891 45.0344 88.7774C44.9976 88.7592 44.9585 88.7504 44.9162 88.7522C44.8893 88.7557 44.8617 88.7592 44.8348 88.7627C44.7827 88.7768 44.738 88.802 44.6995 88.8384C44.6836 88.8583 44.6676 88.8777 44.6517 88.8976C44.6242 88.9433 44.6101 88.9926 44.6101 89.0454C44.6101 89.0805 44.6101 89.1151 44.6101 89.1503C44.6083 89.1908 44.6174 89.2283 44.6364 89.2635C44.6487 89.2998 44.6701 89.3315 44.6995 89.3579C44.727 89.3866 44.7601 89.4065 44.7981 89.4183C44.8348 89.4364 44.874 89.4453 44.9162 89.4435C44.9431 89.44 44.9707 89.4365 44.9976 89.4329C45.0497 89.4189 45.0944 89.3937 45.1329 89.3573C45.1489 89.3374 45.1648 89.318 45.1807 89.2981C45.2082 89.2523 45.2223 89.2031 45.2223 89.1503Z" fill="white"/>
<path d="M73.3337 50.8795C73.3704 50.8795 73.4065 50.8795 73.4433 50.8795C73.4855 50.8813 73.5247 50.8725 73.5614 50.8543C73.5994 50.8426 73.6325 50.8221 73.66 50.7939C73.69 50.7676 73.7108 50.7359 73.7231 50.6995C73.742 50.6644 73.7512 50.6268 73.7494 50.5864C73.7457 50.5606 73.742 50.5342 73.7384 50.5084C73.7237 50.4585 73.6973 50.4157 73.6594 50.3788C73.6386 50.3636 73.6184 50.3483 73.5976 50.3331C73.5498 50.3067 73.4984 50.2932 73.4433 50.2932C73.4065 50.2932 73.3704 50.2932 73.3337 50.2932C73.2914 50.2914 73.2523 50.3002 73.2155 50.3184C73.1776 50.3301 73.1445 50.3507 73.117 50.3788C73.087 50.4052 73.0661 50.4369 73.0539 50.4732C73.0349 50.5084 73.0257 50.5459 73.0276 50.5864C73.0312 50.6122 73.0349 50.6386 73.0386 50.6644C73.0533 50.7142 73.0796 50.757 73.1176 50.7939C73.1384 50.8092 73.1586 50.8244 73.1794 50.8397C73.2272 50.8661 73.2786 50.8795 73.3337 50.8795Z" fill="white"/>
</svg>
